inDegrees=no
num_controls=7
num_derivatives=13
num_iterations=98
num_multipliers=7
num_parameters=0
num_slacks=7
num_states=26
objective=0.334166
objective_accelerations=0.036445
objective_balance=0.001220
objective_effort=0.027293
objective_height=0.267551
objective_ligament=0.001657
solver_duration=1254.271776
status=Solve_Succeeded
success=true
DataType=double
version=3
OpenSimVersion=4.5
endheader
time	/jointset/ground_pelvis/pelvis_tilt/value	/jointset/ground_pelvis/pelvis_tx/value	/jointset/ground_pelvis/pelvis_ty/value	/jointset/hip_r/hip_flexion_r/value	/jointset/hip_r/hip_adduction_r/value	/jointset/hip_r/hip_rotation_r/value	/jointset/back/lumbar_extension/value	/jointset/patellofemoral_r/patellar_flexion_r/value	/jointset/knee_r/knee_flexion_r/value	/jointset/knee_r/knee_adduction_r/value	/jointset/knee_r/knee_rotation_r/value	/jointset/ankle_r/ankle_angle_r/value	/jointset/subtalar_r/subtalar_angle_r/value	/jointset/ground_pelvis/pelvis_tilt/speed	/jointset/ground_pelvis/pelvis_tx/speed	/jointset/ground_pelvis/pelvis_ty/speed	/jointset/hip_r/hip_flexion_r/speed	/jointset/hip_r/hip_adduction_r/speed	/jointset/hip_r/hip_rotation_r/speed	/jointset/back/lumbar_extension/speed	/jointset/patellofemoral_r/patellar_flexion_r/speed	/jointset/knee_r/knee_flexion_r/speed	/jointset/knee_r/knee_adduction_r/speed	/jointset/knee_r/knee_rotation_r/speed	/jointset/ankle_r/ankle_angle_r/speed	/jointset/subtalar_r/subtalar_angle_r/speed	/forceset/tau_hip_flexion_r	/forceset/tau_hip_adduction_r	/forceset/tau_hip_rotation_r	/forceset/tau_knee_flexion_r	/forceset/tau_ankle_angle_r	/forceset/tau_subtalar_angle_r	/forceset/tau_lumbar_extension	lambda_cid13_p0	lambda_cid14_p0	lambda_cid14_p1	lambda_cid14_p2	lambda_cid14_p3	lambda_cid14_p4	lambda_cid14_p5	/jointset/ground_pelvis/pelvis_tilt/accel	/jointset/ground_pelvis/pelvis_tx/accel	/jointset/ground_pelvis/pelvis_ty/accel	/jointset/hip_r/hip_flexion_r/accel	/jointset/hip_r/hip_adduction_r/accel	/jointset/hip_r/hip_rotation_r/accel	/jointset/back/lumbar_extension/accel	/jointset/patellofemoral_r/patellar_flexion_r/accel	/jointset/knee_r/knee_flexion_r/accel	/jointset/knee_r/knee_adduction_r/accel	/jointset/knee_r/knee_rotation_r/accel	/jointset/ankle_r/ankle_angle_r/accel	/jointset/subtalar_r/subtalar_angle_r/accel	gamma_cid13_p0	gamma_cid14_p0	gamma_cid14_p1	gamma_cid14_p2	gamma_cid14_p3	gamma_cid14_p4	gamma_cid14_p5
0	-0.0146549627565177	0.1357804780950286	0.9319043011609861	0.1934211968871041	-0.2439394627956208	-0.2309383165047505	-0.2903787966825928	0.2311786273363437	0.2311786273363406	0.1675297733128801	0.1724247727866234	0.089344008118978	0.04421414857680608	0	0	0	0	0	0	0	0	0	0	0	0	0	0.1125919456604491	-0.07355532746976497	0.006897341580815517	-0.266008575463248	0.1507536643929232	-0.1300794658710664	-0.03106996888557343	-30.02376470799996	0.4791845339985086	-51.04448117312955	2.431552116357157	-6.723511768783735	-611.4089243126239	29.32512330361826	-2.115054988086446	-1.718986656490518	-0.8310761127083658	10.06625556986638	0.1008521661720117	2.516406223563522	-6.111793786747181	10.10175239392097	10.10175239392186	-2.715949993665775	0.2988375461531514	2.900800143324324	0.8830912733681211	7.525344781277753e-08	3.727465900042818e-08	-5.091843019722282e-07	3.173040940514341e-07	3.012042438104497e-08	1.214807226980968e-07	-4.231585518853549e-07
0.01	-0.01475449702703885	0.1356956060646259	0.9318638684824107	0.1939120801264147	-0.2439330346474035	-0.2308093628624059	-0.2906871418570252	0.2316748396808707	0.2316748396808783	0.1673936647065026	0.1724333649858804	0.08948714833031421	0.0442594443107942	-0.01981120751187874	-0.01688885686441109	-0.008071242233045025	0.09773868981910397	0.001210410361911547	0.02572817144248558	-0.06138639223741919	0.0988594580415369	0.09885945804153969	-0.0269503255866136	0.001704184781614929	0.02852175096997458	0.008939356079335322	0.1094591730963309	-0.08891971950088511	0.007458815831189327	-0.2634593603521445	0.1443936445741226	-0.1159512721412974	-0.02822730773535669	-30.02826480452315	-0.9038058664760229	-44.88660798518894	1.148094101841716	-6.807605580784079	-612.4979186024126	42.04424797694423	-1.899805474167971	-1.660996795217799	-0.7928299601342039	9.561984592541348	0.1198354525710879	2.591705086692409	-6.10966554469751	9.72057582875409	9.720575828754445	-2.643914188134593	0.1041346620195014	2.811929264274781	0.8813464794970722	9.599126983788138e-08	3.345404368722861e-08	-6.526144133076658e-07	3.509352462587821e-07	4.946157068021421e-08	2.615392059412688e-08	-4.996036811376394e-07
0.02	-0.01504927374097097	0.1354444131468187	0.9317431870451983	0.1953672120448325	-0.2439167623992955	-0.2304249910092137	-0.2916008716743244	0.2331481532697298	0.233148153269732	0.1669961847748859	0.1724585841764714	0.08991231938943869	0.0443905313464318	-0.03904848868091381	-0.03326417748093929	-0.01604975172736995	0.1928497358225642	0.001968819978639562	0.05108364216902932	-0.1210769285731533	0.1954202488624347	0.1954202488624556	-0.05227426505224049	0.00332539827738465	0.0564061695575769	0.01715826032990119	0.106326400532203	-0.1042841115320109	0.008020290081383021	-0.2609101452410281	0.1380336247553196	-0.1018230784115328	-0.02538464658514338	-30.04137355636596	-2.206947244948331	-38.737480455641	-0.1080073711306104	-6.837614839472522	-612.287159585866	54.46798721861719	-2.000269719517598	-1.616279406914049	-0.8125295649643387	9.540726806737647	0.01045201713529461	2.441866080375155	-5.772622606410108	9.642018949793179	9.642018949797128	-2.39067276946842	0.2822432889841236	2.77333366684975	0.7390009076141857	1.167290918629852e-07	2.963342837402905e-08	-7.960445246431032e-07	3.845663984661301e-07	6.880271697938347e-08	-6.917288150984303e-08	-5.76048810389924e-07
0.03	-0.01553407528582249	0.1350318549906823	0.9315429929831867	0.1977607318949103	-0.2438945635828637	-0.2297907536319551	-0.2931010452414166	0.2355747652471931	0.2355747652471983	0.1663525734733221	0.1725005333037789	0.09061249871168917	0.04460082206331301	-0.05783087448488308	-0.04917932969444785	-0.02398595416709233	0.2854157536227745	0.002473919994937384	0.07564985884931741	-0.1785182717147325	0.2894147527009239	0.2894147527009607	-0.0763015213725083	0.005002288755978652	0.08346416760058117	0.0248631493017197	0.09987358344340855	-0.1018512575118306	0.009006768980189464	-0.2536381912936161	0.1279549207878304	-0.09883701811098869	-0.02015111558684499	-30.0625616966395	-5.309411137624011	-37.90199065653797	-0.3347152252415374	-5.253892304106403	-612.7974312979362	55.01057358362323	-1.805073995546748	-1.568900682370782	-0.7837138270129371	9.048772086106734	0.07094531009513727	2.446988532932327	-5.663963198281777	9.205033581963804	9.205033581963274	-2.386868958898892	0.101171820164166	2.647220984273701	0.780642928202352	1.369444964984595e-07	3.172173222382421e-08	-8.982411883462038e-07	4.691015705522239e-07	8.221618887751991e-08	-1.3910253403799e-07	-6.772166784239481e-07
0.04	-0.01620427088566141	0.1344621918016502	0.9312635272480703	0.2010667584868722	-0.2438672325030267	-0.2289142562736738	-0.2951624468459755	0.2389266957592556	0.238926695759258	0.1654730662293998	0.1725574033144579	0.09157829563662093	0.04488704367715965	-0.0761272996772337	-0.06468518406006832	-0.03190408634831338	0.3753510842007493	0.002995272659965127	0.09953563837267404	-0.2333225360662966	0.3804839557828924	0.3804839557829068	-0.09945345351648732	0.00630957494925562	0.1095296900935003	0.03234443972300179	0.09342076635458024	-0.09941840349166449	0.009993247879027075	-0.246366237346235	0.1178762168203257	-0.09585095781046614	-0.01491758458855982	-30.09063340243981	-8.33869623170496	-37.07423275826199	-0.536721160946847	-3.625581877485375	-612.1222042870215	55.2824388995024	-1.90307759719376	-1.534419837336529	-0.8089155132640639	9.014589362290559	0.01370254688126524	2.305778648988865	-5.245206848407038	9.056958798489056	9.056958798485333	-2.21560793421064	0.2083224319207277	2.574838556832606	0.6942811975068557	1.571491296413641e-07	3.393186945842338e-08	-9.99587677871318e-07	5.546863100584981e-07	9.550744068491341e-08	-2.085085339975634e-07	-7.788942936493484e-07
0.05	-0.01705545996384061	0.1337397254042788	0.930904672791643	0.205259560731184	-0.2438349537043778	-0.2278035439134499	-0.2977588770524135	0.2431755565510849	0.2431755565510891	0.1643669990479749	0.1726269452447238	0.09280023062854756	0.04524669299523938	-0.09402396347799651	-0.0797169702658844	-0.03988444738911066	0.4627500832123317	0.003436756147283162	0.1224652639854337	-0.2855954139376682	0.4688368698842109	0.4688368698843723	-0.1215531820523004	0.007573032828390189	0.1347262817456691	0.03952712092188324	0.08812279045206552	-0.09434259091076762	0.01069246748581922	-0.2423333956855431	0.1131866870542823	-0.09585851580924643	-0.01055866209147927	-30.12433228338298	-9.780333293733911	-37.37759894935819	-0.4339136750973332	-3.243361868815921	-611.4777871917968	53.2872536166507	-1.719964549088699	-1.47387003131472	-0.7952850298360045	8.533671405227155	0.05577732899708352	2.265437420179098	-5.163114563802086	8.656726218048869	8.656726218073212	-2.17623733800802	0.08160395566162801	2.472436086119081	0.7214248038048834	1.4466104180223e-07	2.830678388089439e-08	-8.497017938441201e-07	5.726816903132857e-07	8.80676541544895e-08	-2.577063600174846e-07	-7.379061273574596e-07
